<?xml version="1.0" standalone="no"?><!DOCTYPE svg PUBLIC "-//W3C//DTD SVG 1.1//EN" "http://www.w3.org/Graphics/SVG/1.1/DTD/svg11.dtd"><svg t="1539763388155" class="icon" style="" viewBox="0 0 1024 1024" version="1.1" xmlns="http://www.w3.org/2000/svg" p-id="1968" xmlns:xlink="http://www.w3.org/1999/xlink" width="32" height="32"><defs><style type="text/css"></style></defs><path d="M797.536 356V824a102.496 102.496 0 0 1-100.912 104H343.392a102.496 102.496 0 0 1-100.928-104V356A51.2 51.2 0 0 1 192 304v-52a51.2 51.2 0 0 1 50.464-52h151.392V148A51.2 51.2 0 0 1 444.304 96h151.392a51.2 51.2 0 0 1 50.464 52v52h151.392A51.2 51.2 0 0 1 848 252V304a51.2 51.2 0 0 1-50.464 52zM292.928 824a51.2 51.2 0 0 0 50.464 52h353.232a51.2 51.2 0 0 0 50.464-52V356H292.928V824z m302.768-650a25.6 25.6 0 0 0-25.232-26h-100.928a25.6 25.6 0 0 0-25.232 26V200h151.392v-26z m176.608 78H267.696a26.016 26.016 0 0 0 0 52h504.608a26.016 26.016 0 0 0 0-52z m-378.464 208a25.6 25.6 0 0 1 25.232 26v312a25.248 25.248 0 1 1-50.464 0v-312a25.6 25.6 0 0 1 25.232-26z m126.16 0a25.6 25.6 0 0 1 25.232 26v312a25.248 25.248 0 1 1-50.464 0v-312A25.6 25.6 0 0 1 520 460z m126.16 0a25.6 25.6 0 0 1 25.232 26v312a25.248 25.248 0 1 1-50.464 0v-312a25.6 25.6 0 0 1 25.232-26z" p-id="1969" fill="#ffffff"></path></svg>