<?xml version="1.0" standalone="no"?><!DOCTYPE svg PUBLIC "-//W3C//DTD SVG 1.1//EN" "http://www.w3.org/Graphics/SVG/1.1/DTD/svg11.dtd"><svg t="1539932280536" class="icon" style="" viewBox="0 0 1024 1024" version="1.1" xmlns="http://www.w3.org/2000/svg" p-id="6319" xmlns:xlink="http://www.w3.org/1999/xlink" width="32" height="32"><defs><style type="text/css"></style></defs><path d="M904 875.9H120c-30.9 0-56-25.1-56-56V204.1c0-30.9 25.1-56 56-56h231.6c12.8 0 25.2 4.4 35.2 12.4L509.9 260H904c30.9 0 56 25.1 56 56v503.8c0 31-25.1 56.1-56 56.1z m0-56v28-28zM351.6 204.1H120v615.8h784l0.1-503.8H510c-12.8 0-25.3-4.4-35.3-12.5l-123.1-99.5z" p-id="6320" fill="#ffffff"></path></svg>