<?xml version="1.0" standalone="no"?><!DOCTYPE svg PUBLIC "-//W3C//DTD SVG 1.1//EN" "http://www.w3.org/Graphics/SVG/1.1/DTD/svg11.dtd"><svg t="1539765173467" class="icon" style="" viewBox="0 0 1024 1024" version="1.1" xmlns="http://www.w3.org/2000/svg" p-id="8535" xmlns:xlink="http://www.w3.org/1999/xlink" width="32" height="32"><defs><style type="text/css"></style></defs><path d="M576 742.4 324.266667 742.4c-12.8 0-21.333333 8.533333-21.333333 21.333333s8.533333 21.333333 21.333333 21.333333l251.733333 0c12.8 0 21.333333-8.533333 21.333333-21.333333S584.533333 742.4 576 742.4zM699.733333 576 324.266667 576c-12.8 0-21.333333 8.533333-21.333333 21.333333 0 12.8 8.533333 21.333333 21.333333 21.333333l375.466667 0c12.8 0 21.333333-8.533333 21.333333-21.333333C721.066667 584.533333 712.533333 576 699.733333 576zM324.266667 281.6 426.666667 281.6c12.8 0 21.333333-8.533333 21.333333-21.333333 0-12.8-8.533333-21.333333-21.333333-21.333333L324.266667 238.933333c-12.8 0-21.333333 8.533333-21.333333 21.333333C302.933333 273.066667 311.466667 281.6 324.266667 281.6zM678.4 55.466667l-64 0L221.866667 55.466667c-46.933333 0-85.333333 38.4-85.333333 85.333333l0 750.933333c0 46.933333 38.4 85.333333 85.333333 85.333333l584.533333 0c46.933333 0 85.333333-38.4 85.333333-85.333333L891.733333 324.266667l0-42.666667L678.4 55.466667zM844.8 887.466667c0 21.333333-17.066667 42.666667-42.666667 42.666667L221.866667 930.133333c-21.333333 0-42.666667-17.066667-42.666667-42.666667L179.2 136.533333c0-21.333333 17.066667-42.666667 42.666667-42.666667L597.333333 93.866667l0 209.066667c0 21.333333 17.066667 42.666667 42.666667 42.666667l209.066667 0L849.066667 887.466667zM635.733333 302.933333 635.733333 93.866667l21.333333 0 187.733333 209.066667L635.733333 302.933333zM302.933333 426.666667c0 12.8 8.533333 21.333333 21.333333 21.333333l375.466667 0c12.8 0 21.333333-8.533333 21.333333-21.333333 0-12.8-8.533333-21.333333-21.333333-21.333333L324.266667 405.333333C311.466667 409.6 302.933333 418.133333 302.933333 426.666667z" p-id="8536" fill="#495057"></path></svg>