<?xml version="1.0" standalone="no"?><!DOCTYPE svg PUBLIC "-//W3C//DTD SVG 1.1//EN" "http://www.w3.org/Graphics/SVG/1.1/DTD/svg11.dtd"><svg t="1539914530581" class="icon" style="" viewBox="0 0 1091 1024" version="1.1" xmlns="http://www.w3.org/2000/svg" p-id="6853" xmlns:xlink="http://www.w3.org/1999/xlink" width="17.046875" height="16"><defs><style type="text/css"></style></defs><path d="M1017.728 532q0-20-30.272-20l-621.728 0q-22.848 0-48.864 12.288t-40.864 30.016l-168 207.424q-10.272 13.728-10.272 22.848 0 20 30.272 20l621.728 0q22.848 0 49.152-12.576t40.576-30.272l168-207.424q10.272-12.576 10.272-22.272zM365.728 438.848l438.848 0 0-91.424q0-22.848-16-38.848t-38.848-16l-329.152 0q-22.848 0-38.848-16t-16-38.848l0-36.576q0-22.848-16-38.848t-38.848-16l-182.848 0q-22.848 0-38.848 16t-16 38.848l0 487.424 146.272-180q25.152-30.272 66.272-50.016t80-19.712zM1090.848 532q0 35.424-26.272 68.576l-168.576 207.424q-24.576 30.272-66.272 50.016t-80 19.712l-621.728 0q-52.576 0-90.272-37.728t-37.728-90.272l0-548.576q0-52.576 37.728-90.272t90.272-37.728l182.848 0q52.576 0 90.272 37.728t37.728 90.272l0 18.272 310.848 0q52.576 0 90.272 37.728t37.728 90.272l0 91.424 109.728 0q30.848 0 56.576 14.016t38.272 40.288q8.576 18.272 8.576 38.848z" p-id="6854" fill="#ffffff"></path></svg>